<mxfile host="app.diagrams.net" modified="2024-03-14T10:09:46.850Z" agent="Mozilla/5.0 (Windows NT 10.0; Win64; x64) AppleWebKit/537.36 (KHTML, like Gecko) Chrome/122.0.0.0 Safari/537.36 Edg/122.0.0.0" etag="89nRwH6GDp-FgD0jGCI7" version="24.0.5" type="github">
  <diagram name="Page-1" id="O7lrSdsMmmD433fcDyEp">
    <mxGraphModel dx="1294" dy="751" grid="1" gridSize="10" guides="1" tooltips="1" connect="1" arrows="1" fold="1" page="1" pageScale="1" pageWidth="850" pageHeight="1100" math="0" shadow="0">
      <root>
        <mxCell id="0" />
        <mxCell id="1" parent="0" />
        <mxCell id="BZzfBl-QzZFnFe_VPo3d-36" value="" style="edgeStyle=orthogonalEdgeStyle;rounded=0;orthogonalLoop=1;jettySize=auto;html=1;strokeWidth=2;" parent="1" source="BZzfBl-QzZFnFe_VPo3d-3" target="BZzfBl-QzZFnFe_VPo3d-13" edge="1">
          <mxGeometry relative="1" as="geometry" />
        </mxCell>
        <mxCell id="BZzfBl-QzZFnFe_VPo3d-3" value="Sound Synthesis" style="rounded=1;whiteSpace=wrap;html=1;strokeWidth=2;fontSize=16;" parent="1" vertex="1">
          <mxGeometry x="352.5" y="210" width="130" height="60" as="geometry" />
        </mxCell>
        <mxCell id="BZzfBl-QzZFnFe_VPo3d-28" value="" style="edgeStyle=orthogonalEdgeStyle;rounded=0;orthogonalLoop=1;jettySize=auto;html=1;strokeWidth=2;startArrow=classic;startFill=1;" parent="1" source="BZzfBl-QzZFnFe_VPo3d-5" target="BZzfBl-QzZFnFe_VPo3d-6" edge="1">
          <mxGeometry relative="1" as="geometry">
            <Array as="points">
              <mxPoint x="230" y="340" />
              <mxPoint x="230" y="340" />
            </Array>
          </mxGeometry>
        </mxCell>
        <mxCell id="BZzfBl-QzZFnFe_VPo3d-5" value="Sound Quality Modeling" style="ellipse;whiteSpace=wrap;html=1;strokeWidth=2;fontSize=16;fontStyle=1;fillColor=#d5e8d4;strokeColor=#82b366;" parent="1" vertex="1">
          <mxGeometry x="165" y="340" width="130" height="80" as="geometry" />
        </mxCell>
        <mxCell id="BZzfBl-QzZFnFe_VPo3d-34" value="" style="edgeStyle=orthogonalEdgeStyle;rounded=0;orthogonalLoop=1;jettySize=auto;html=1;strokeWidth=2;" parent="1" source="BZzfBl-QzZFnFe_VPo3d-6" target="BZzfBl-QzZFnFe_VPo3d-3" edge="1">
          <mxGeometry relative="1" as="geometry" />
        </mxCell>
        <mxCell id="BZzfBl-QzZFnFe_VPo3d-6" value="Physical Modeling" style="ellipse;whiteSpace=wrap;html=1;strokeWidth=2;fontSize=16;fontStyle=0" parent="1" vertex="1">
          <mxGeometry x="165" y="200" width="130" height="80" as="geometry" />
        </mxCell>
        <mxCell id="BZzfBl-QzZFnFe_VPo3d-27" value="" style="edgeStyle=orthogonalEdgeStyle;rounded=0;orthogonalLoop=1;jettySize=auto;html=1;strokeWidth=2;endArrow=classic;endFill=1;startArrow=classic;startFill=1;" parent="1" source="BZzfBl-QzZFnFe_VPo3d-13" target="BZzfBl-QzZFnFe_VPo3d-5" edge="1">
          <mxGeometry relative="1" as="geometry" />
        </mxCell>
        <mxCell id="BZzfBl-QzZFnFe_VPo3d-13" value="Listening Test" style="rhombus;whiteSpace=wrap;html=1;rounded=1;strokeWidth=2;fontSize=16;" parent="1" vertex="1">
          <mxGeometry x="347.5" y="315" width="140" height="130" as="geometry" />
        </mxCell>
        <mxCell id="BZzfBl-QzZFnFe_VPo3d-37" value="" style="edgeStyle=orthogonalEdgeStyle;rounded=0;orthogonalLoop=1;jettySize=auto;html=1;strokeWidth=2;" parent="1" source="BZzfBl-QzZFnFe_VPo3d-4" target="BZzfBl-QzZFnFe_VPo3d-3" edge="1">
          <mxGeometry relative="1" as="geometry" />
        </mxCell>
        <mxCell id="BZzfBl-QzZFnFe_VPo3d-4" value="Acoustic Characterization" style="rounded=1;whiteSpace=wrap;html=1;strokeWidth=2;fontSize=16;" parent="1" vertex="1">
          <mxGeometry x="352.5" y="90" width="130" height="60" as="geometry" />
        </mxCell>
        <mxCell id="8Ph14NCC7YNU8JkyqF3v-2" value="" style="edgeStyle=orthogonalEdgeStyle;rounded=0;orthogonalLoop=1;jettySize=auto;html=1;strokeWidth=2;startArrow=none;startFill=0;" edge="1" parent="1" source="8Ph14NCC7YNU8JkyqF3v-1" target="BZzfBl-QzZFnFe_VPo3d-4">
          <mxGeometry relative="1" as="geometry" />
        </mxCell>
        <mxCell id="8Ph14NCC7YNU8JkyqF3v-3" value="" style="edgeStyle=orthogonalEdgeStyle;rounded=0;orthogonalLoop=1;jettySize=auto;html=1;strokeWidth=2;startArrow=none;startFill=0;" edge="1" parent="1" source="8Ph14NCC7YNU8JkyqF3v-1" target="BZzfBl-QzZFnFe_VPo3d-6">
          <mxGeometry relative="1" as="geometry" />
        </mxCell>
        <mxCell id="8Ph14NCC7YNU8JkyqF3v-1" value="&lt;font style=&quot;font-size: 17px;&quot;&gt;Materials&lt;/font&gt;" style="rounded=1;whiteSpace=wrap;html=1;strokeWidth=2;fillColor=#ffe6cc;strokeColor=#d79b00;" vertex="1" parent="1">
          <mxGeometry x="165" y="90" width="130" height="60" as="geometry" />
        </mxCell>
        <mxCell id="8Ph14NCC7YNU8JkyqF3v-5" value="&lt;font style=&quot;font-size: 17px;&quot;&gt;Input&lt;/font&gt;" style="text;html=1;align=center;verticalAlign=middle;resizable=0;points=[];autosize=1;strokeColor=none;fillColor=none;" vertex="1" parent="1">
          <mxGeometry x="200" y="60" width="60" height="30" as="geometry" />
        </mxCell>
        <mxCell id="8Ph14NCC7YNU8JkyqF3v-6" value="&lt;span style=&quot;color: rgb(0, 0, 0); font-family: Helvetica; font-style: normal; font-variant-ligatures: normal; font-variant-caps: normal; font-weight: 400; letter-spacing: normal; orphans: 2; text-align: center; text-indent: 0px; text-transform: none; widows: 2; word-spacing: 0px; -webkit-text-stroke-width: 0px; white-space: nowrap; background-color: rgb(251, 251, 251); text-decoration-thickness: initial; text-decoration-style: initial; text-decoration-color: initial; float: none; display: inline !important;&quot;&gt;&lt;font style=&quot;font-size: 17px;&quot;&gt;Goal&lt;/font&gt;&lt;/span&gt;" style="text;whiteSpace=wrap;html=1;" vertex="1" parent="1">
          <mxGeometry x="210" y="420" width="70" height="40" as="geometry" />
        </mxCell>
      </root>
    </mxGraphModel>
  </diagram>
</mxfile>
